# xmcd
#
# Track frame offsets:
#	150
#	15724
#	28690
#	40514
#	57027
#	67592
#	78014
#	91020
#	102172
#	116138
#	128180
#	141510
#	153391
#	165476
#	182036
#	194038
#	205028
#	214722
#	231354
#	242029
#
# Disc length: 3427 seconds
#
# Revision: 1
# Processed by: cddbd v1.5.2PL0 Copyright (c) Steve Scherf et al.
# Submitted via: EasyCDDAExtractor 16.0.1.1
#
DISCID=050d6114
DTITLE=Dalida - 2011 Le Coffret... CD 3
DYEAR=2011
DGENRE=Chanson
TTITLE0=Romantica 
TTITLE1=Dans Le Bleu Du Ciel Bleu 
TTITLE2=Bras Dessus Bras Dessous
TTITLE3=La Plus Belle Du Monde 
TTITLE4=Adieu Mon Amour
TTITLE5=De Grenade A Seville 
TTITLE6=C'est Un Jour A Naples 
TTITLE7=Guitare Et Tambourin 
TTITLE8=L'arlequin De Tolede 
TTITLE9=Le Bonheur
TTITLE10=Le Torrent
TTITLE11=Les Yeux De Mon Amour 
TTITLE12=Le Petit Clair De Lune 
TTITLE13=Fado 
TTITLE14=Elle Lui Et L'autre 
TTITLE15=J'ecoute Chanter La Brise
TTITLE16=Ce Serait Dommage
TTITLE17=Ay! Mourir Pour Toi
TTITLE18=Va Petite Etoile 
TTITLE19=Luna Caprese 
EXTD=
EXTT0=
EXTT1=
EXTT2=
EXTT3=
EXTT4=
EXTT5=
EXTT6=
EXTT7=
EXTT8=
EXTT9=
EXTT10=
EXTT11=
EXTT12=
EXTT13=
EXTT14=
EXTT15=
EXTT16=
EXTT17=
EXTT18=
EXTT19=
PLAYORDER=
